<?xml version="1.0" encoding="UTF-8"?>
<svg id="Layer_1" data-name="Layer 1" xmlns="http://www.w3.org/2000/svg" viewBox="0 0 156.23 50.64">
  <g>
    <path d="M75.7,26.32h-4.82l-10.39-15.24h-.03v15.24h-4.88V2.97h4.94l10.3,14.99h.03V2.97h4.85V26.32Z"/>
    <path d="M79.33,17.71c0-5.54,3.79-9.17,7.7-9.17,2.6,0,4.57,1.31,5.7,3.1l.5-2.66h4.22V26.32h-4.22l-.5-2.66c-1.13,1.82-3.1,3.1-5.7,3.1-3.91,0-7.7-3.63-7.7-9.05Zm9.17,4.54c2.32,0,4.04-1.91,4.04-4.6s-1.72-4.6-4.04-4.6-4.13,1.97-4.13,4.6,1.75,4.6,4.13,4.6Z"/>
    <path d="M101.61,8.98h4.19l.5,2.66c1.13-1.78,3.16-3.1,5.67-3.1,4.04,0,7.76,3.57,7.76,9.11s-3.6,9.11-7.67,9.11c-2.25,0-4.38-1.19-5.45-2.97v9.11h-5.01V8.98Zm8.95,13.27c2.38,0,4.1-1.97,4.1-4.63s-1.72-4.57-4.07-4.57-4.04,1.91-4.04,4.6,1.69,4.6,4.01,4.6Z"/>
    <path d="M134.91,9.89v4.26c-1.22-.85-3.32-1.53-5.29-1.53-1.56,0-2.44,.53-2.44,1.38,0,.94,1,1.31,2.97,1.85,2.85,.69,5.88,1.66,5.88,5.32,0,3.41-2.69,5.6-7.39,5.6-2.5,0-4.66-.63-6.2-1.63v-4.6c1.47,1.19,3.44,2.16,5.98,2.16,1.75,0,2.75-.56,2.75-1.5,0-1.06-1.25-1.41-3.5-2.03-2.75-.78-5.32-1.91-5.32-5.07s2.6-5.54,7.07-5.54c2.03,0,4.13,.5,5.48,1.35Z"/>
    <path d="M138.32,17.71c0-5.51,3.88-9.17,8.7-9.17,4.41,0,8.01,3.04,8.01,8.83,0,.63-.03,1.19-.12,1.69h-11.8c.66,2.47,2.82,3.76,5.45,3.76,1.91,0,3.76-.66,5.41-1.72v4.1c-1.78,1.03-3.82,1.57-6.04,1.57-6.1,0-9.61-3.79-9.61-9.05Zm11.96-1.66c-.03-2.25-1.44-3.57-3.29-3.57s-3.51,1.38-3.97,3.57h7.26Z"/>
  </g>
  <g>
    <path d="M56.61,34.87h1.08v7.91h-1.08v-7.91Z"/>
    <path d="M62.74,34.87h1.26l3.95,6.39v-6.39h1.02v7.91h-1.2l-4-6.38v6.38h-1.02v-7.91Z"/>
    <path d="M74.64,34.87l2.27,6.74,2.25-6.74h1.2l-2.89,7.91h-1.14l-2.88-7.91h1.18Z"/>
    <path d="M84.78,34.87h5.74v.97h-4.69v2.4h4.34v.92h-4.34v2.68h4.78v.94h-5.82v-7.91Z"/>
    <path d="M96.04,40.23c.02,.45,.13,.81,.31,1.09,.34,.52,.95,.79,1.81,.79,.39,0,.74-.06,1.06-.17,.62-.22,.92-.62,.92-1.2,0-.43-.13-.74-.39-.92-.26-.18-.68-.34-1.24-.47l-1.04-.24c-.68-.16-1.16-.33-1.44-.52-.49-.33-.73-.82-.73-1.48,0-.71,.24-1.29,.72-1.75,.48-.46,1.16-.68,2.03-.68,.81,0,1.49,.2,2.06,.6,.56,.4,.85,1.04,.85,1.92h-1.01c-.05-.42-.16-.75-.33-.97-.31-.41-.85-.62-1.6-.62-.61,0-1.04,.13-1.31,.4-.26,.27-.4,.57-.4,.93,0,.39,.16,.67,.47,.85,.21,.11,.67,.26,1.39,.43l1.08,.25c.52,.12,.92,.29,1.2,.5,.49,.37,.73,.91,.73,1.61,0,.88-.31,1.5-.93,1.88-.62,.38-1.34,.57-2.17,.57-.96,0-1.71-.25-2.25-.75-.54-.5-.81-1.18-.8-2.03h1.01Z"/>
    <path d="M111.76,34.87v.94h-2.67v6.97h-1.08v-6.97h-2.67v-.94h6.41Z"/>
    <path d="M116.02,34.87h1.54l2.27,6.69,2.26-6.69h1.52v7.91h-1.02v-4.67c0-.16,0-.43,.01-.8,0-.37,.01-.77,.01-1.2l-2.26,6.67h-1.06l-2.28-6.67v.24c0,.19,0,.49,.02,.89s.02,.69,.02,.88v4.67h-1.02v-7.91Z"/>
    <path d="M128.65,34.87h5.74v.97h-4.7v2.4h4.34v.92h-4.34v2.68h4.78v.94h-5.82v-7.91Z"/>
    <path d="M139.21,34.87h1.26l3.95,6.39v-6.39h1.02v7.91h-1.2l-4-6.38v6.38h-1.02v-7.91Z"/>
    <path d="M156.24,34.87v.94h-2.67v6.97h-1.08v-6.97h-2.67v-.94h6.41Z"/>
  </g>
  <path d="M25.31,0C11.33,0,0,11.33,0,25.31s11.33,25.32,25.31,25.32,25.32-11.33,25.32-25.32S39.3,0,25.31,0ZM8.99,27.95s-.04-.04-.05-.06c.11-.1,.23-.19,.33-.29,1.06-1.01,1.91-2.19,2.69-3.44,.83-1.37,1.65-2.74,2.36-4.18,.05-.1,.1-.18,.21-.22,.93-.32,1.78-.81,2.62-1.33,.92-.56,1.82-1.17,2.72-1.76,.17-.11,.32-.24,.51-.4,.02,.17,.04,.31,.05,.44,.03,.51,.07,1.02,.09,1.53,.04,1.09,.11,2.18-.13,3.25-.19,.88-.54,1.69-1.23,2.28-.22,.19-.45,.32-.73,.36-.61,.09-1.1,.42-1.51,.87-.33,.35-.36,.8-.29,1.26,.12,.71,.24,1.43,.36,2.14,.01,.04,.02,.07,.03,.11,.07,.45-.01,.83-.37,1.16-.5,.45-1.01,.86-1.69,1.12,.05-.14,.08-.23,.11-.32,.3-.75,.48-1.52,.4-2.34-.04-.39-.16-.73-.45-1-.19-.17-.38-.37-.59-.51-.41-.29-.87-.31-1.35-.25-.47,.06-.92,.22-1.35,.43-.82,.4-1.64,.78-2.5,1.07-.08,.03-.16,.05-.24,.08Zm23.05,18.35c-1.97,.53-4,.81-6.04,.81-5.07,0-10.39-2.34-14.51-6.14-.17-.8-.09-1.57,.36-2.27,.01-.02,.02-.05,.04-.07,.32-.59,.61-1.22,.99-1.77,.95-1.33,1.99-2.6,3.12-3.77,.07-.08,.19-.14,.29-.16,.44-.06,.88-.17,1.3-.34,.27-.11,.53-.06,.79,.07,.24,.11,.47,.24,.72,.3,.52,.12,1.04,.1,1.56-.03,.85-.2,1.65-.53,2.41-.94,.59-.32,1.19-.63,1.72-1.05,.21-.17,.41-.36,.51-.63,.05-.14,.14-.21,.27-.25,.09-.04,.18-.09,.27-.11,.05-.02,.11-.02,.16,0,.25,.09,.3,.15,.3,.43,0,.11-.01,.22-.03,.32-.08,.35-.17,.7-.25,1.04-.09,.37-.03,.69,.2,.99,.4,.51,.94,.77,1.53,.93,.19,.05,.4,.05,.59,.04,.44-.02,.85-.13,1.26-.29,.03-.02,.07-.02,.11-.02,0,.03,0,.04,0,.05-.01,.04-.03,.08-.05,.12-.24,.45-.33,.94-.3,1.45,.02,.5,.05,.99,.08,1.48,.1,1.58,3.23,3.45,3.83,4.87,.68,1.61-.69,3.9-1.23,4.94Zm-5.53-30.35s.04,.08,.04,.12c.05,.65,.36,1.18,.72,1.67,.58,.78,1.12,1.58,1.5,2.49,.37,.89,.66,1.83,.84,2.79,.24,1.31,.46,2.63,.67,3.95,.12,.7,.21,1.4,.3,2.1,.02,.09,.02,.18,.03,.29-.62,.05-1.16-.09-1.69-.33-.05-.02-.09-.08-.12-.13-.19-.28-.24-.55-.07-.89,.23-.44,.22-.93,.1-1.41-.1-.4-.32-.72-.63-.97-.17-.15-.36-.27-.53-.43-.38-.36-.75-.74-1.12-1.11-.03-.03-.06-.07-.08-.11-.3-.79-.74-1.5-1.17-2.21-.5-.85-.94-1.74-1.33-2.65-.15-.34-.15-.7-.19-1.05-.11-.98-.15-1.97-.17-2.95-.02-1.41,.22-2.77,.7-4.09,.23-.62,.48-1.25,.75-1.86,.18-.42,.43-.8,.75-1.12,.16-.16,.3-.34,.45-.51,.07-.07,.14-.13,.23-.22,.1,.23,.1,.44,.1,.65,.02,.67-.1,1.34-.21,2-.15,.89-.31,1.78-.41,2.68-.13,1.15,.05,2.26,.54,3.3Zm20.18,19.77c-1.34-.11-4.22,.02-4.41-.42-.03-.06-.06-.11-.08-.17-.48-1.05-1.19-1.89-2.1-2.55-.55-.4-1.16-.7-1.76-1-.32-.16-.64-.33-.93-.53-.25-.17-.42-.4-.5-.72-.25-.93-.56-1.85-.93-2.74-.09-.24-.2-.47-.33-.7-.59-1.07-1.42-1.92-2.4-2.6-.16-.11-.26-.24-.33-.42-.5-1.35-.87-2.73-1.18-4.13-.19-.85-.32-1.71-.47-2.56-.25-1.37-.8-2.57-1.82-3.51-.28-.25-.53-.53-.79-.79-.15-.16-.28-.34-.35-.56-.08-.24-.16-.48-.24-.73-.01-.03,0-.06,.01-.13,.45,.31,.88,.6,1.3,.9,.48,.34,.91,.74,1.25,1.23,.39,.56,.79,1.11,1.16,1.69,.55,.83,1.08,1.67,1.48,2.59,.26,.6,.53,1.19,.81,1.78,.39,.84,.85,1.64,1.39,2.39,.55,.77,1.08,1.56,1.61,2.34,.38,.56,.76,1.11,1.2,1.63,.22,.26,.42,.55,.58,.87,.4,.81,.81,1.61,1.23,2.4,.26,.49,.55,.96,.92,1.37,.15,.18,.32,.36,.55,.37,.24,.02,.49-.01,.74-.04,.2-.03,.39-.03,.58,.06,.39,.18,.8,.35,1.18,.56,1.03,.58,2.05,1.18,3.07,1.78,.22,.13,.44,.26,.64,.41-.33,.66-.69,1.31-1.08,1.93Zm.26-7.72c-.63-.95-1.23-1.91-1.91-2.82-1.14-1.5-2.58-2.58-4.22-3.4-.41-.2-.85-.35-1.32-.28-.48,.06-.95,.17-1.4,.35-.12,.05-.24,.08-.36,.12-.03-.05-.05-.08-.06-.12-.86-1.67-1.71-3.34-2.56-5.02-.36-.69-.72-1.39-1.17-2.03-.8-1.11-1.61-2.2-2.51-3.23-.55-.63-1.13-1.24-1.82-1.71-.43-.3-.9-.56-1.35-.83-.2-.12-.21-.12-.19-.35,0-.03,0-.06,.02-.08,.03-.8-.08-1.52-.74-2.05-.24-.2-.5-.37-.71-.62-.04-.05-.14-.08-.21-.08-.4,.02-.81,.04-1.17,.27-.21,.14-.42,.29-.65,.38-.75,.29-1.41,.73-2,1.27-.64,.59-1.24,1.23-1.83,1.87-.45,.47-.85,.99-1.29,1.47-.45,.48-.91,.96-1.48,1.3-.24,.14-.45,.35-.68,.53-.27,.2-.53,.4-.8,.59-.39,.28-.78,.54-1.16,.81-.09,.06-.17,.13-.26,.18-.74,.37-1.3,.97-1.88,1.54-.06,.06-.1,.13-.14,.2-.31,.6-.73,1.13-.97,1.77-.14,.39-.39,.74-.58,1.11-.42,.8-.85,1.58-1.25,2.39-.21,.44-.45,.84-.72,1.24-.93,1.37-1.96,2.65-3.14,3.79-.66,.64-1.31,1.29-1.97,1.93-.18-1.04-.27-2.1-.27-3.18C4.2,13.27,16.62,3.51,26,3.51c12.03,0,23.79,9.76,23.79,21.8,0,1.89-.29,3.72-.83,5.47-.74-.88-1.36-1.83-2.01-2.78Z"/>
</svg>