<?xml version="1.0" encoding="UTF-8"?>
<svg id="Layer_1" data-name="Layer 1" xmlns="http://www.w3.org/2000/svg" viewBox="0 0 156.23 50.64">
  <defs>
    <style>
      .cls-1 {
        fill: #fff;
      }

      .cls-2 {
        isolation: isolate;
      }
    </style>
  </defs>
  <g class="cls-2">
    <path class="cls-1" d="M75.71,26.32h-4.82l-10.39-15.24h-.03v15.24h-4.88V2.97h4.94l10.3,14.99h.03V2.97h4.85V26.32Z"/>
    <path class="cls-1" d="M79.33,17.71c0-5.54,3.79-9.17,7.7-9.17,2.6,0,4.57,1.31,5.7,3.1l.5-2.66h4.23V26.32h-4.23l-.5-2.66c-1.13,1.82-3.1,3.1-5.7,3.1-3.91,0-7.7-3.63-7.7-9.04Zm9.17,4.54c2.32,0,4.04-1.91,4.04-4.6s-1.72-4.6-4.04-4.6-4.13,1.97-4.13,4.6,1.75,4.6,4.13,4.6Z"/>
    <path class="cls-1" d="M101.61,8.98h4.19l.5,2.66c1.13-1.78,3.16-3.1,5.66-3.1,4.04,0,7.76,3.57,7.76,9.11s-3.6,9.11-7.67,9.11c-2.25,0-4.38-1.19-5.45-2.97v9.11h-5.01V8.98Zm8.95,13.27c2.38,0,4.1-1.97,4.1-4.63s-1.72-4.57-4.07-4.57-4.04,1.91-4.04,4.6,1.69,4.6,4.01,4.6Z"/>
    <path class="cls-1" d="M134.91,9.89v4.26c-1.22-.85-3.32-1.53-5.29-1.53-1.57,0-2.44,.53-2.44,1.38,0,.94,1,1.31,2.97,1.85,2.85,.69,5.88,1.66,5.88,5.32,0,3.41-2.69,5.6-7.39,5.6-2.5,0-4.66-.63-6.2-1.63v-4.6c1.47,1.19,3.44,2.16,5.98,2.16,1.75,0,2.75-.56,2.75-1.5,0-1.06-1.25-1.41-3.5-2.03-2.75-.78-5.32-1.91-5.32-5.07s2.6-5.54,7.07-5.54c2.03,0,4.13,.5,5.48,1.35Z"/>
    <path class="cls-1" d="M138.31,17.71c0-5.51,3.88-9.17,8.7-9.17,4.41,0,8.01,3.04,8.01,8.83,0,.63-.03,1.19-.12,1.69h-11.8c.66,2.47,2.82,3.76,5.45,3.76,1.91,0,3.76-.66,5.41-1.72v4.1c-1.78,1.03-3.82,1.56-6.04,1.56-6.1,0-9.61-3.79-9.61-9.04Zm11.96-1.66c-.03-2.25-1.44-3.57-3.29-3.57s-3.5,1.38-3.97,3.57h7.26Z"/>
  </g>
  <path class="cls-1" d="M25.31,0C11.33,0,0,11.32,0,25.31s11.32,25.32,25.31,25.32,25.32-11.34,25.32-25.32S39.3,0,25.31,0ZM8.98,27.96s-.03-.04-.05-.06c.11-.1,.23-.19,.33-.29,1.06-1.01,1.91-2.19,2.68-3.44,.84-1.36,1.65-2.74,2.37-4.17,.05-.1,.1-.18,.21-.22,.93-.33,1.79-.81,2.62-1.33,.92-.57,1.82-1.17,2.72-1.76,.17-.11,.32-.24,.51-.4,.02,.17,.03,.3,.04,.44,.03,.51,.07,1.02,.09,1.53,.04,1.09,.11,2.18-.13,3.25h.02c-.2,.87-.54,1.67-1.23,2.27-.22,.19-.45,.31-.73,.36-.6,.09-1.1,.42-1.51,.87-.33,.35-.36,.8-.29,1.26,.12,.72,.24,1.43,.36,2.15,0,.04,.02,.07,.02,.11,.07,.45,0,.83-.36,1.16-.5,.45-1.02,.86-1.7,1.12,.05-.14,.08-.23,.12-.32,.29-.75,.47-1.52,.39-2.34-.04-.39-.16-.73-.45-1-.19-.18-.38-.37-.59-.52-.41-.29-.87-.3-1.34-.25-.48,.06-.92,.22-1.35,.43-.82,.4-1.64,.78-2.51,1.07-.08,.03-.16,.05-.24,.08Zm23.06,18.34c-1.97,.53-4,.81-6.04,.81-5.08,0-10.4-2.34-14.53-6.15-.16-.8-.08-1.56,.37-2.25,0-.02,.02-.05,.04-.07,.33-.59,.61-1.22,1-1.76,.95-1.34,1.99-2.6,3.12-3.77,.07-.08,.19-.14,.29-.16,.45-.06,.88-.17,1.3-.34,.28-.11,.54-.06,.8,.07,.23,.11,.47,.24,.72,.3,.52,.12,1.04,.1,1.56-.02,.85-.2,1.64-.53,2.41-.95,.59-.32,1.18-.63,1.71-1.05,.21-.17,.42-.36,.52-.63,.05-.14,.14-.21,.27-.26,.09-.03,.17-.08,.26-.11,.05-.02,.12-.02,.17,0,.25,.09,.29,.15,.29,.43,0,.11,0,.22-.03,.32-.08,.35-.17,.7-.25,1.04-.09,.36-.03,.68,.21,.98,.4,.51,.94,.77,1.53,.93,.19,.05,.39,.05,.59,.04,.43-.02,.85-.13,1.25-.29,.03-.01,.07-.01,.11-.02v.05s-.03,.08-.05,.12c-.24,.45-.33,.94-.3,1.45,.03,.49,.06,.99,.09,1.48,.1,1.58,3.22,3.45,3.82,4.87,.68,1.61-.68,3.9-1.23,4.94Zm-5.5-30.33s.04,.08,.05,.12c.05,.65,.35,1.18,.72,1.67,.58,.78,1.11,1.58,1.49,2.48h-.04c.38,.89,.66,1.82,.84,2.79,.25,1.31,.46,2.63,.68,3.95,.11,.7,.2,1.4,.3,2.1,.01,.09,.02,.18,.03,.29-.62,.05-1.16-.1-1.69-.33-.05-.02-.09-.08-.12-.13-.19-.28-.24-.55-.07-.88,.23-.45,.22-.94,.1-1.42-.1-.39-.32-.71-.62-.97-.18-.15-.37-.27-.53-.43-.38-.36-.75-.74-1.13-1.11-.03-.03-.06-.07-.07-.11-.31-.79-.75-1.49-1.17-2.21-.5-.85-.94-1.74-1.33-2.65-.15-.34-.16-.7-.19-1.05-.11-.98-.15-1.97-.16-2.95-.02-1.41,.21-2.77,.7-4.08,.23-.63,.48-1.25,.75-1.86,.18-.42,.43-.8,.75-1.12,.16-.16,.3-.34,.46-.51,.06-.07,.14-.13,.23-.21,.1,.22,.09,.44,.1,.64,.02,.68-.1,1.34-.21,2-.15,.89-.31,1.78-.41,2.68-.13,1.15,.05,2.25,.54,3.3Zm20.15,19.74c-1.34-.09-4.21,.04-4.4-.41-.02-.06-.05-.11-.08-.17-.48-1.04-1.19-1.89-2.1-2.55-.55-.4-1.16-.7-1.77-1-.32-.16-.63-.33-.93-.53-.25-.17-.41-.4-.5-.72-.25-.93-.56-1.85-.93-2.74-.1-.24-.21-.47-.33-.7-.59-1.07-1.42-1.92-2.4-2.6-.16-.11-.26-.24-.33-.43-.5-1.34-.87-2.72-1.18-4.12-.19-.85-.32-1.71-.47-2.56-.25-1.37-.8-2.57-1.82-3.51-.27-.25-.52-.52-.78-.79-.16-.16-.28-.34-.35-.56-.08-.24-.16-.49-.24-.73v-.13c.45,.31,.88,.6,1.3,.9,.48,.34,.91,.74,1.26,1.23,.39,.56,.79,1.11,1.16,1.68,.54,.83,1.08,1.67,1.47,2.59,.26,.6,.53,1.19,.81,1.78,.39,.84,.85,1.64,1.39,2.39,.55,.77,1.08,1.56,1.61,2.34,.38,.56,.76,1.11,1.19,1.63,.22,.26,.43,.56,.59,.88,.4,.8,.81,1.61,1.23,2.4,.26,.49,.55,.95,.91,1.37,.15,.17,.32,.35,.55,.37,.25,.02,.5-.01,.74-.05,.2-.03,.39-.03,.58,.06,.39,.19,.79,.35,1.17,.56,1.03,.58,2.05,1.18,3.08,1.78,.22,.13,.44,.26,.64,.42-.32,.66-.68,1.3-1.07,1.92Zm.26-7.71c-.63-.94-1.24-1.9-1.92-2.81-1.13-1.51-2.58-2.58-4.21-3.4-.41-.21-.85-.35-1.32-.29-.48,.07-.95,.17-1.4,.36-.12,.05-.24,.08-.36,.12-.03-.06-.05-.09-.06-.12-.85-1.67-1.71-3.35-2.56-5.02-.36-.7-.71-1.4-1.17-2.03-.8-1.11-1.61-2.2-2.5-3.23-.55-.63-1.13-1.24-1.82-1.71-.44-.3-.9-.56-1.36-.83-.2-.12-.21-.12-.19-.35,0-.03,.01-.05,.01-.08,.04-.79-.08-1.52-.73-2.05-.24-.2-.5-.37-.71-.61-.04-.05-.14-.09-.21-.08-.41,.02-.81,.04-1.17,.27-.21,.14-.42,.28-.66,.37-.75,.29-1.41,.73-2,1.27-.64,.59-1.23,1.23-1.83,1.87-.45,.48-.85,.99-1.29,1.47-.45,.48-.9,.96-1.48,1.3-.25,.14-.45,.35-.68,.53-.26,.2-.53,.41-.8,.6-.38,.27-.78,.54-1.16,.8-.09,.06-.17,.13-.26,.18-.74,.37-1.3,.97-1.88,1.54-.06,.05-.1,.13-.14,.2-.31,.6-.73,1.13-.97,1.77-.15,.39-.39,.74-.59,1.11-.42,.79-.85,1.58-1.24,2.39-.21,.43-.45,.84-.72,1.24-.93,1.37-1.96,2.65-3.14,3.79-.65,.64-1.3,1.28-1.96,1.92-.18-1.04-.27-2.1-.27-3.18C4.2,13.27,16.62,3.51,26,3.51c12.03,0,23.79,9.76,23.79,21.8,0,1.89-.29,3.72-.83,5.47-.74-.87-1.36-1.84-2.01-2.78Z"/>
  <g class="cls-2">
    <path class="cls-1" d="M56.6,34.87h1.08v7.91h-1.08v-7.91Z"/>
    <path class="cls-1" d="M62.73,34.87h1.26l3.95,6.39v-6.39h1.02v7.91h-1.2l-4-6.38v6.38h-1.02v-7.91Z"/>
    <path class="cls-1" d="M74.64,34.87l2.27,6.74,2.25-6.74h1.2l-2.89,7.91h-1.14l-2.88-7.91h1.19Z"/>
    <path class="cls-1" d="M84.78,34.87h5.74v.97h-4.7v2.4h4.34v.92h-4.34v2.68h4.78v.94h-5.82v-7.91Z"/>
    <path class="cls-1" d="M96.04,40.23c.02,.45,.13,.81,.31,1.09,.34,.52,.95,.79,1.81,.79,.39,0,.74-.06,1.06-.17,.62-.22,.92-.62,.92-1.2,0-.43-.13-.74-.39-.92-.26-.18-.68-.34-1.24-.47l-1.04-.24c-.68-.16-1.16-.33-1.44-.52-.49-.33-.73-.82-.73-1.48,0-.71,.24-1.29,.72-1.75s1.16-.68,2.03-.68c.81,0,1.49,.2,2.06,.6s.85,1.04,.85,1.92h-1.01c-.05-.42-.16-.75-.33-.97-.31-.41-.84-.62-1.6-.62-.61,0-1.04,.13-1.31,.4-.26,.27-.4,.57-.4,.93,0,.39,.16,.67,.47,.85,.21,.12,.67,.26,1.39,.43l1.08,.25c.52,.12,.92,.29,1.2,.5,.49,.37,.73,.91,.73,1.61,0,.88-.31,1.5-.93,1.88-.62,.38-1.34,.57-2.17,.57-.96,0-1.71-.25-2.25-.75-.54-.5-.81-1.18-.8-2.03h1.01Z"/>
    <path class="cls-1" d="M111.76,34.87v.94h-2.67v6.97h-1.08v-6.97h-2.67v-.94h6.42Z"/>
    <path class="cls-1" d="M116.03,34.87h1.54l2.28,6.69,2.26-6.69h1.52v7.91h-1.02v-4.67c0-.16,0-.43,.01-.8,0-.37,.01-.77,.01-1.2l-2.26,6.67h-1.06l-2.28-6.67v.24c0,.19,0,.49,.02,.89,.01,.4,.02,.69,.02,.88v4.67h-1.02v-7.91Z"/>
    <path class="cls-1" d="M128.65,34.87h5.74v.97h-4.7v2.4h4.34v.92h-4.34v2.68h4.78v.94h-5.82v-7.91Z"/>
    <path class="cls-1" d="M139.22,34.87h1.26l3.95,6.39v-6.39h1.02v7.91h-1.2l-4-6.38v6.38h-1.02v-7.91Z"/>
    <path class="cls-1" d="M156.24,34.87v.94h-2.67v6.97h-1.08v-6.97h-2.67v-.94h6.42Z"/>
  </g>
</svg>