<?xml version="1.0" encoding="utf-8"?>
<!-- Generator: Adobe Illustrator 26.3.1, SVG Export Plug-In . SVG Version: 6.00 Build 0)  -->
<svg version="1.1" id="Layer_1" xmlns="http://www.w3.org/2000/svg" xmlns:xlink="http://www.w3.org/1999/xlink" x="0px" y="0px"
	 viewBox="0 0 1460 516.5" style="enable-background:new 0 0 1460 516.5;" xml:space="preserve">
<style type="text/css">
	.st0{enable-background:new    ;}
	.st1{fill:#1D1D1B;}
</style>
<g class="st0">
	<path class="st1" d="M747.6,293h-47.8L596.7,141.7h-0.3V293H548V61.3H597L699.2,210h0.3V61.3h48.1V293z"/>
	<path class="st1" d="M766,207.6c0-55,37.6-91,76.4-91c25.8,0,45.3,13,56.5,30.7l5-26.4h41.9v172h-41.9l-5-26.4
		c-11.2,18-30.7,30.7-56.5,30.7C803.5,297.3,766,261.3,766,207.6z M856.9,252.6c23,0,40.1-18.9,40.1-45.6s-17.1-45.6-40.1-45.6
		c-23.6,0-41,19.6-41,45.6C815.9,233.3,833.3,252.6,856.9,252.6z"/>
	<path class="st1" d="M969.3,120.9h41.6l5,26.4c11.2-17.7,31.4-30.7,56.2-30.7c40.1,0,77,35.4,77,90.4c0,55.3-35.7,90.4-76.1,90.4
		c-22.4,0-43.5-11.8-54-29.5v90.4h-49.7V120.9z M1058.1,252.6c23.6,0,40.7-19.6,40.7-46s-17.1-45.3-40.4-45.3
		c-23.3,0-40.1,18.9-40.1,45.6S1035.2,252.6,1058.1,252.6z"/>
	<path class="st1" d="M1282,129.9v42.2c-12.1-8.4-32.9-15.2-52.5-15.2c-15.5,0-24.2,5.3-24.2,13.7c0,9.3,9.9,13,29.5,18.3
		c28.3,6.8,58.4,16.5,58.4,52.8c0,33.8-26.7,55.6-73.3,55.6c-24.8,0-46.3-6.2-61.5-16.1v-45.6c14.6,11.8,34.2,21.4,59.3,21.4
		c17.4,0,27.3-5.6,27.3-14.9c0-10.6-12.4-14-34.8-20.2c-27.3-7.8-52.8-18.9-52.8-50.3c0-31.7,25.8-55,70.2-55
		C1247.9,116.6,1268.7,121.6,1282,129.9z"/>
	<path class="st1" d="M1298.2,207.6c0-54.6,38.5-91,86.3-91c43.8,0,79.5,30.1,79.5,87.6c0,6.2-0.3,11.8-1.2,16.8h-117.1
		c6.5,24.5,27.9,37.3,54,37.3c18.9,0,37.3-6.5,53.7-17.1v40.7c-17.7,10.2-37.9,15.5-59.9,15.5
		C1332.9,297.3,1298.2,259.7,1298.2,207.6z M1416.8,191.1c-0.3-22.4-14.3-35.4-32.6-35.4c-18.6,0-34.8,13.7-39.4,35.4H1416.8z"/>
</g>
<g class="st0">
	<path class="st1" d="M566.1,467.4h-9.4V398h9.4V467.4z"/>
	<path class="st1" d="M656.1,398h9.1v69.4h-10.5l-35.3-56.1h-0.2v56.1h-9.1V398h11.1l34.7,56.1h0.2V398z"/>
	<path class="st1" d="M752.5,398H763l-25.3,69.4h-10L702.4,398h10.4l19.8,59.1h0.2L752.5,398z"/>
	<path class="st1" d="M852.4,467.4h-51.2V398h50.5v8.3h-41.2v21.3h38v8.3h-38v23.2h41.8V467.4z"/>
	<path class="st1" d="M934.5,418.3c-0.5-10.7-9.4-14.1-17.2-14.1c-5.9,0-15.9,1.6-15.9,12.2c0,5.9,4.2,7.8,8.2,8.8l19.8,4.5
		c9,2.1,15.8,7.5,15.8,18.6c0,16.4-15.3,21-27.2,21c-12.9,0-17.9-3.9-21-6.7c-5.9-5.3-7.1-11.1-7.1-17.6h8.8
		c0,12.6,10.2,16.2,19.1,16.2c6.8,0,18.2-1.7,18.2-11.7c0-7.2-3.4-9.6-14.8-12.3l-14.2-3.3c-4.5-1.1-14.8-4.3-14.8-16.3
		c0-10.8,7.1-21.5,23.9-21.5c24.3,0,26.7,14.5,27.1,22.1H934.5z"/>
	<path class="st1" d="M979,398h56.3v8.3h-23.5v61.1h-9.4v-61.1H979V398z"/>
	<path class="st1" d="M1129.1,467.4v-41c0-2,0.2-10.8,0.2-17.3h-0.2l-19.5,58.3h-9.3l-19.5-58.2h-0.2c0,6.4,0.2,15.2,0.2,17.2v41
		h-9.1V398h13.4l19.8,58.7h0.2l19.7-58.7h13.3v69.4H1129.1z"/>
	<path class="st1" d="M1232.6,467.4h-51.2V398h50.5v8.3h-41.2v21.3h38v8.3h-38v23.2h41.8V467.4z"/>
	<path class="st1" d="M1318.8,398h9.1v69.4h-10.5l-35.3-56.1h-0.2v56.1h-9.1V398h11.1l34.7,56.1h0.2V398z"/>
	<path class="st1" d="M1364.5,398h56.3v8.3h-23.5v61.1h-9.4v-61.1h-23.5V398z"/>
</g>
<g id="XMLID_00000183214014935184138110000002058535280723749556_">
	<g>
		<path d="M250.8,13.6C389.6,13.6,502,126.1,502,264.8S389.6,516.1,250.8,516.1C112.1,516.1-0.4,403.5-0.4,264.8
			S112.1,13.6,250.8,13.6z M493.8,264.8c0-119.5-116.7-216.3-236.2-216.3c-93.1,0-216.3,96.8-216.3,216.3s113.6,216.3,216.3,216.3
			C377.1,481.1,493.8,384.3,493.8,264.8z"/>
	</g>
</g>
<g>
	<path d="M128.7,450.7c-0.6,0.3-1.1,0.7-1.7,1c0.4,0.1,0.8,0.3,1.3,0.4C128.4,451.7,128.6,451.2,128.7,450.7z"/>
	<path d="M486.2,320c-7.6-9-14.1-18.8-20.7-28.6c-6.3-9.3-12.3-18.9-19-27.9c-11.2-15-25.6-25.6-41.8-33.7
		c-4.1-2.1-8.5-3.5-13.1-2.8c-4.7,0.6-9.4,1.7-13.9,3.5c-1.1,0.5-2.4,0.8-3.5,1.2c-0.3-0.6-0.5-0.9-0.6-1.2
		c-8.5-16.6-16.9-33.2-25.4-49.8c-3.5-6.9-7.1-13.9-11.6-20.2c-7.9-11-16-21.9-24.9-32c-5.5-6.3-11.2-12.3-18-17
		c-4.4-3-8.9-5.6-13.5-8.3c-2-1.2-2.1-1.2-1.9-3.5c0-0.3,0.1-0.5,0.1-0.8c0.4-7.9-0.8-15.1-7.3-20.3c-2.4-1.9-5-3.7-7-6.1
		c-0.4-0.5-1.4-0.9-2.1-0.8c-4,0.2-8,0.4-11.6,2.7c-2.1,1.3-4.2,2.8-6.5,3.7c-7.4,2.9-14,7.2-19.8,12.6
		c-6.3,5.8-12.2,12.2-18.1,18.5c-4.4,4.7-8.4,9.9-12.8,14.6c-4.5,4.8-8.9,9.6-14.6,12.9c-2.4,1.4-4.5,3.5-6.8,5.3
		c-2.6,2-5.2,4-7.9,5.9c-3.8,2.7-7.7,5.3-11.5,8c-0.9,0.6-1.6,1.3-2.6,1.8c-7.3,3.7-12.9,9.7-18.7,15.3c-0.6,0.5-1,1.2-1.3,1.9
		c-3.1,5.9-7.2,11.2-9.6,17.6c-1.4,3.9-3.9,7.3-5.8,11c-4.2,7.9-8.4,15.7-12.3,23.7c-2.1,4.3-4.5,8.4-7.2,12.3
		c-9.2,13.6-19.5,26.3-31.2,37.6c-9.1,8.8-18,17.8-27.2,26.6c-2.7,2.6-5.3,5.2-8,7.7c17.8,53.3,38.3,117.5,95.8,139.3
		c-1.5-3.7-5-0.6-5.8-6.5c-0.5-3.7,0.5-10.3-2.2-12.7c-1-0.9-1.3-9.7-2.5-10.6c-1.8-8.3-1.2-16.1,3.4-23.4c0.1-0.2,0.2-0.5,0.4-0.7
		c3.3-5.9,6.1-12.1,9.9-17.5c9.4-13.3,19.7-25.8,31-37.4c0.7-0.8,1.8-1.4,2.9-1.6c4.4-0.6,8.7-1.7,12.9-3.4c2.7-1.1,5.3-0.6,7.9,0.6
		c2.3,1.1,4.6,2.4,7.1,3c5.1,1.2,10.3,1,15.5-0.2c8.4-2,16.3-5.3,23.9-9.4c5.8-3.2,11.8-6.2,17-10.4c2.1-1.7,4.1-3.5,5.1-6.2
		c0.5-1.4,1.4-2.1,2.7-2.6c0.9-0.3,1.7-0.8,2.6-1.1c0.5-0.1,1.2-0.2,1.7,0c2.5,0.9,2.9,1.5,2.9,4.3c0,1.1-0.1,2.1-0.3,3.2
		c-0.8,3.5-1.6,6.9-2.5,10.4c-0.9,3.6-0.3,6.8,2,9.7c4,5.1,9.4,7.6,15.2,9.3c1.9,0.5,3.9,0.5,5.9,0.4c4.3-0.2,8.4-1.3,12.5-2.9
		c0.3-0.1,0.7-0.1,1.1-0.2c0,0.3,0,0.4,0,0.5c-0.2,0.4-0.3,0.8-0.5,1.2c-2.4,4.5-3.3,9.3-3,14.4c0.3,4.9,0.6,9.8,0.9,14.7
		c1,15.6,32,34.2,37.9,48.3c8.8,21-17.1,53.2-14.1,54.6c7.1,3.1,34.6-8.3,42.2-6.9c3.4,0.6,12.4-5.6,15.4-7.2
		c5.1-2.6,10-9.3,15.2-11.9c5.2-2.6,22.5-19,27.6-21.8c1.9-1,18.1-11.3,19.9-12.7c4.2-3.2,11.9-13.2,16-16.5
		c9.3-7.7,10.1-21.9,17.6-31.4c3.9-4.9-47.8-0.4-50.3-6.4c-0.2-0.6-0.5-1.1-0.8-1.7c-4.8-10.4-11.8-18.7-20.8-25.3
		c-5.5-4-11.5-7-17.5-10c-3.1-1.6-6.3-3.3-9.2-5.2c-2.5-1.6-4.1-4-5-7.1c-2.5-9.3-5.6-18.3-9.2-27.2c-1-2.4-2.1-4.7-3.3-6.9
		c-5.9-10.6-14.1-19-23.8-25.8c-1.6-1.1-2.6-2.4-3.3-4.2c-5-13.3-8.6-27-11.7-40.9c-1.9-8.4-3.1-16.9-4.7-25.4
		c-2.5-13.6-7.9-25.5-18.1-34.9c-2.7-2.5-5.2-5.2-7.8-7.8c-1.5-1.6-2.8-3.4-3.5-5.5c-0.8-2.4-1.6-4.8-2.4-7.3
		c-0.1-0.3,0-0.6,0.1-1.3c4.5,3.1,8.7,6,12.9,8.9c4.8,3.4,9,7.4,12.5,12.2c3.9,5.5,7.8,11,11.5,16.7c5.4,8.3,10.7,16.6,14.6,25.7
		c2.5,5.9,5.3,11.8,8,17.6c3.9,8.3,8.4,16.3,13.8,23.7c5.5,7.6,10.7,15.5,16,23.2c3.8,5.5,7.5,11,11.8,16.2c2.2,2.6,4.2,5.5,5.8,8.7
		c4,8,8,15.9,12.2,23.8c2.6,4.9,5.5,9.5,9.1,13.6c1.5,1.7,3.2,3.5,5.5,3.7c2.4,0.2,4.9-0.1,7.4-0.5c2-0.2,3.9-0.3,5.8,0.6
		c3.9,1.9,7.9,3.5,11.6,5.6c10.2,5.8,20.4,11.7,30.5,17.6c2.4,1.4,4.7,2.9,6.9,4.5c1.5-3.6,3.1-7.2,4.6-10.9
		c2.3-5.6,6.3-10.4,11-14.4C488.6,322.7,487.4,321.4,486.2,320z M202,226.9c-1.9,8.8-5.4,16.7-12.2,22.6c-2.2,1.9-4.5,3.1-7.3,3.5
		c-6,0.9-10.9,4.2-15,8.6c-3.2,3.5-3.6,8-2.8,12.5c1.1,7.1,2.4,14.2,3.6,21.3c0.1,0.4,0.2,0.7,0.2,1c0.7,4.5,0,8.3-3.6,11.5
		c-4.9,4.5-10.1,8.5-16.8,11.1c0.5-1.4,0.8-2.3,1.2-3.2c2.9-7.4,4.7-15.1,3.9-23.2c-0.4-3.9-1.6-7.3-4.4-9.9
		c-1.9-1.8-3.8-3.7-5.9-5.1c-4.1-2.8-8.6-3-13.3-2.4c-4.7,0.6-9.1,2.2-13.4,4.3c-8.1,4-16.3,7.8-24.9,10.6c-0.8,0.3-1.6,0.5-2.4,0.8
		c-0.2-0.2-0.3-0.4-0.4-0.6c1.1-1,2.2-1.9,3.3-2.9c10.5-10,19-21.7,26.6-34.1c8.3-13.5,16.4-27.2,23.5-41.4c0.5-1,1-1.8,2.1-2.2
		c9.2-3.2,17.7-8,26-13.1c9.1-5.6,18-11.6,27-17.5c1.6-1.1,3.1-2.4,5.1-3.9c0.2,1.7,0.3,3,0.4,4.3c0.3,5.1,0.7,10.1,0.9,15.2
		C203.6,205.4,204.3,216.2,202,226.9z M285,214.3c3.7,8.9,6.5,18.2,8.3,27.7c2.4,13,4.6,26.1,6.7,39.2c1.1,6.9,2,13.9,3,20.9
		c0.1,0.9,0.2,1.8,0.3,2.9c-6.1,0.5-11.5-1-16.7-3.3c-0.5-0.2-0.9-0.8-1.2-1.3c-1.9-2.8-2.4-5.5-0.7-8.8c2.3-4.4,2.2-9.3,1-14.1
		c-1-3.9-3.1-7.1-6.2-9.6c-1.7-1.4-3.6-2.7-5.3-4.2c-3.8-3.6-7.5-7.3-11.2-11c-0.3-0.3-0.6-0.7-0.7-1.1c-3-7.8-7.4-14.8-11.6-21.9
		c-5-8.4-9.3-17.2-13.2-26.3c-1.4-3.4-1.5-6.9-1.9-10.4c-1.1-9.7-1.5-19.5-1.6-29.3c-0.2-14,2.1-27.5,6.9-40.5
		c2.3-6.2,4.8-12.4,7.4-18.5c1.8-4.1,4.2-7.9,7.4-11.1c1.6-1.6,3-3.4,4.5-5.1c0.6-0.7,1.4-1.3,2.3-2.1c0.9,2.2,0.9,4.3,1,6.4
		c0.2,6.7-1,13.3-2.1,19.9c-1.5,8.9-3,17.7-4.1,26.6c-1.3,11.4,0.5,22.4,5.3,32.7c0.2,0.4,0.4,0.8,0.5,1.2
		c0.5,6.4,3.5,11.7,7.1,16.6C276,197.4,281.3,205.3,285,214.3z"/>
</g>
<g>
	<path d="M283.5,483.8c-0.1,3.4-4.6-32-5.4-35.4c-4.7-19.8-13.8-31.7-29.4-29.4c-15.8,2.3-33.7-25.3-36.5-26.5
		c-3.7-1.6-7.6-1.3-11.4-0.2c-3.1,1-5.6,2.8-7.5,5.4c-1.1,1.5-2,3-3.2,4.4c-2.7,3.2-5.6,6.3-8.4,9.5c-0.2,0.2-0.5,0.5-0.8,0.6
		c-6.2,2.8-11.6,6.6-17.2,10.3c-6.6,4.4-13.5,8.2-20.6,11.7c-0.3,0.1-0.6,0.1-0.8,0.3c-3.7,8.5-4.9,17.7-1.7,27.4
		c7.7-0.7,15.3-1.4,23-0.1c7.1,1.2,13.7,3.6,18.8,8.9c1.6,1.7,2.7,3.5,3.2,5.7c1,4.8,3.8,8.6,7.6,11.7c3,2.5,6.6,2.5,10.2,1.7
		c5.7-1.2,11.3-2.5,17-3.8c0.3-0.1,0.6-0.2,0.8-0.2c3.6-0.8,6.7-0.3,9.4,2.4c3.6,3.6,6.9,7.4,9.2,12.3c7.3-1.5,14.2-3.8,20.3-7
		c-0.6-0.5-1.3-1-1.9-1.5c-0.6-0.6-1.2-1.4-1.4-2.2c-0.7-3.5-1.8-6.9-3.3-10.2c-1-2.2,8.2,12.8,9.1,10.6c0.8-1.9,12.9,6.6,13.3,4.6
		c0.8-4.2,8.6-1.5,7.4-5.6"/>
	<path d="M224,427.8"/>
</g>
</svg>
