<?xml version="1.0" encoding="UTF-8"?>
<svg id="Layer_2" xmlns="http://www.w3.org/2000/svg" viewBox="0 0 51.14 51.14">
    <g id="Layer_1-2">
        <path
            d="M25.56,.25c13.99,0,25.32,11.34,25.32,25.32s-11.33,25.32-25.32,25.32S.25,39.55,.25,25.57,11.58,.25,25.56,.25Zm24.48,25.32c0-12.04-11.76-21.8-23.79-21.8C16.87,3.77,4.45,13.53,4.45,25.57s15.09,21.8,21.8,21.8c12.03,0,23.79-9.76,23.79-21.8Z" />
        <path
            d="M49.61,31.02c-.77-.87-1.42-1.82-2.09-2.77-.63-.9-1.24-1.83-1.92-2.7-1.13-1.45-2.58-2.48-4.21-3.26-.41-.2-.85-.34-1.32-.27-.48,.06-.95,.16-1.4,.34-.12,.05-.24,.08-.36,.11-.03-.05-.05-.08-.06-.11-.85-1.61-1.71-3.21-2.56-4.82-.36-.67-.71-1.34-1.17-1.95-.8-1.06-1.61-2.11-2.5-3.1-.55-.61-1.13-1.19-1.82-1.65-.44-.29-.9-.54-1.36-.8-.2-.11-.21-.11-.19-.34,0-.03,.01-.05,.01-.08,.04-.76-.08-1.46-.73-1.97-.24-.19-.5-.35-.71-.59-.04-.05-.14-.08-.21-.08-.41,.02-.81,.04-1.17,.26-.21,.13-.42,.27-.66,.36-.75,.28-1.41,.7-2,1.22-.64,.57-1.23,1.18-1.83,1.79-.44,.46-.85,.95-1.29,1.41-.45,.46-.9,.92-1.48,1.25-.25,.14-.45,.34-.68,.51-.26,.19-.53,.39-.8,.57-.38,.26-.78,.51-1.16,.77-.09,.06-.17,.13-.26,.17-.74,.36-1.3,.94-1.88,1.48-.06,.05-.1,.12-.14,.19-.31,.57-.73,1.08-.97,1.7-.15,.37-.39,.71-.59,1.06-.42,.76-.85,1.52-1.24,2.3-.21,.42-.45,.81-.72,1.19-.93,1.31-1.96,2.54-3.14,3.64-.92,.85-1.82,1.72-2.74,2.57-1.03,.95-2.04,1.93-3.1,2.86,.64,.62,1.19,1.34,1.63,2.11,.19,.34,.46,.85,.64,1.31,.35,.21,.69,.42,1.01,.62,1.46,.93,2.27,2.14,2.57,3.41,.62,.78,1.24,1.57,1.96,2.28,2.94,2.89,6.86,3.7,10.8,4.53,.77,.16,1.41,.44,1.94,.79,.33-.01,.66-.02,.99-.03,.05,0,.11-.01,.2-.03-.16-.21-.29-.39-.43-.56-.57-.69-1.14-1.37-1.5-2.2-.24-.54-.62-.97-1.05-1.36-.39-.36-.85-.59-1.37-.67-.56-.09-1.13-.1-1.7-.06-.9,.06-1.74,.29-2.51,.78-.33,.21-.67,.39-1.01,.57-.06,.03-.12,.05-.15,.06-.1-.66-.21-1.31-.3-1.95-.05-.36-.22-.65-.49-.88-.1-.08-.2-.16-.32-.25-.19-.8-.12-1.56,.35-2.26,.01-.02,.02-.05,.04-.07,.33-.57,.61-1.17,1-1.69,.95-1.29,1.99-2.5,3.12-3.62,.07-.07,.19-.14,.29-.15,.45-.06,.88-.17,1.3-.33,.28-.11,.54-.06,.8,.06,.23,.11,.47,.23,.72,.29,.52,.12,1.04,.1,1.56-.02,.85-.19,1.64-.51,2.41-.91,.59-.31,1.18-.6,1.71-1.01,.21-.16,.42-.34,.52-.6,.05-.14,.14-.2,.27-.25,.09-.03,.17-.08,.26-.1,.05-.01,.12-.02,.17,0,.25,.08,.29,.14,.29,.41,0,.1,0,.21-.03,.31-.08,.34-.17,.67-.25,1-.09,.35-.03,.65,.21,.94,.4,.49,.94,.74,1.53,.9,.19,.05,.39,.05,.59,.04,.43-.02,.85-.13,1.25-.28,.03-.01,.07-.01,.11-.02,0,.03,0,.04,0,.05-.02,.04-.03,.08-.05,.12-.24,.43-.33,.9-.3,1.4,.03,.47,.06,.95,.09,1.42,.1,1.51,.66,2.86,1.46,4.12,.18,.28,.42,.47,.72,.59,.71,.3,1.45,.48,2.21,.62,.34,.06,.64,0,.95-.14,.52-.25,1.04-.5,1.56-.75,.52-.25,.96-.63,1.47-.89,.19-.1,.35-.27,.53-.4,.42-.31,.86-.61,1.27-.93,.94-.74,1.8-1.56,2.56-2.49,.39-.48,.36-.29,.1-.87-.02-.05-.05-.11-.08-.16-.48-1-1.19-1.81-2.1-2.45-.55-.39-1.16-.68-1.77-.96-.32-.15-.63-.32-.93-.51-.25-.16-.41-.38-.5-.69-.25-.9-.56-1.77-.93-2.63-.1-.23-.21-.46-.33-.67-.59-1.03-1.42-1.84-2.4-2.49-.16-.11-.26-.23-.33-.41-.5-1.29-.87-2.62-1.18-3.96-.19-.81-.32-1.64-.47-2.46-.25-1.32-.8-2.47-1.82-3.37-.27-.24-.52-.5-.78-.76-.16-.15-.28-.33-.35-.53-.08-.23-.16-.47-.24-.7,0-.03,0-.06,0-.13,.45,.3,.88,.58,1.3,.86,.48,.33,.91,.71,1.26,1.19,.39,.54,.79,1.07,1.16,1.62,.54,.8,1.08,1.6,1.47,2.49,.26,.57,.53,1.14,.81,1.71,.39,.81,.85,1.58,1.39,2.3,.55,.74,1.08,1.5,1.61,2.25,.38,.53,.76,1.07,1.19,1.56,.22,.25,.43,.53,.59,.84,.4,.77,.81,1.54,1.23,2.3,.26,.47,.55,.92,.91,1.31,.15,.17,.32,.34,.55,.36,.25,.02,.5-.01,.74-.04,.2-.02,.39-.03,.58,.06,.39,.18,.79,.34,1.17,.54,1.03,.56,2.05,1.13,3.08,1.71,.24,.13,.48,.28,.7,.44,.16-.35,.31-.7,.46-1.05,.23-.54,.63-1,1.11-1.39-.12-.13-.24-.26-.36-.4Zm-28.65-9.01c-.2,.85-.54,1.62-1.23,2.19-.22,.18-.45,.3-.73,.34-.6,.09-1.1,.4-1.51,.83-.33,.34-.36,.77-.29,1.21,.12,.69,.24,1.38,.36,2.06,0,.03,.02,.07,.02,.1,.07,.44,0,.8-.36,1.12-.5,.43-1.02,.82-1.7,1.07,.05-.14,.08-.22,.12-.31,.29-.72,.47-1.46,.39-2.24-.04-.37-.16-.71-.45-.96-.19-.17-.38-.35-.59-.5-.41-.27-.87-.29-1.34-.24-.48,.06-.92,.21-1.35,.41-.82,.38-1.64,.75-2.51,1.03-.08,.03-.16,.05-.24,.07-.02-.02-.03-.04-.05-.06,.11-.09,.23-.18,.33-.28,1.06-.97,1.91-2.1,2.68-3.3,.84-1.31,1.65-2.63,2.37-4.01,.05-.09,.1-.17,.21-.21,.93-.31,1.79-.77,2.62-1.27,.92-.55,1.82-1.13,2.72-1.69,.17-.1,.32-.23,.51-.38,.02,.16,.03,.29,.04,.42,.03,.49,.07,.98,.09,1.47,.04,1.04,.11,2.09-.13,3.12Zm8.37-1.22c.38,.86,.66,1.76,.84,2.68,.25,1.26,.46,2.53,.68,3.79,.11,.67,.2,1.35,.3,2.02,.01,.08,.02,.17,.03,.28-.62,.05-1.16-.09-1.69-.32-.05-.02-.09-.08-.12-.13-.19-.27-.24-.53-.07-.85,.23-.43,.22-.9,.1-1.36-.1-.38-.32-.69-.62-.93-.18-.14-.37-.26-.53-.41-.38-.35-.75-.71-1.13-1.07-.03-.03-.06-.07-.07-.11-.31-.76-.75-1.44-1.17-2.12-.5-.81-.94-1.67-1.33-2.54-.15-.33-.16-.67-.19-1.01-.11-.94-.15-1.89-.16-2.84-.02-1.35,.21-2.66,.7-3.92,.23-.6,.48-1.2,.75-1.79,.18-.4,.43-.77,.75-1.08,.16-.16,.3-.33,.46-.49,.06-.07,.14-.12,.23-.21,.1,.22,.09,.42,.1,.62,.02,.65-.1,1.29-.21,1.92-.15,.86-.31,1.71-.41,2.58-.13,1.1,.05,2.17,.54,3.17,.02,.04,.04,.08,.05,.12,.05,.62,.35,1.13,.72,1.6,.58,.75,1.11,1.52,1.49,2.38Z" />
    </g>
</svg>